<svg width="43" height="14" viewBox="0 0 43 14" fill="none" xmlns="http://www.w3.org/2000/svg">
<g id="visa-10 1" clip-path="url(#clip0_1_192)">
<path id="Vector" d="M28.0075 0.0170689C24.9543 0.0170689 22.2258 1.6034 22.2258 4.53426C22.2258 7.89538 27.0649 8.12751 27.0649 9.81605C27.0649 10.527 26.252 11.1635 24.8638 11.1635C22.8936 11.1635 21.421 10.2742 21.421 10.2742L20.791 13.2317C20.791 13.2317 22.4873 13.9829 24.7395 13.9829C28.0775 13.9829 30.7042 12.3187 30.7042 9.33777C30.7042 5.78611 25.8451 5.56084 25.8451 3.99363C25.8451 3.43661 26.5123 2.82639 27.8966 2.82639C29.4584 2.82639 30.7328 3.47315 30.7328 3.47315L31.3494 0.616677C31.3494 0.616677 29.9629 0.0170689 28.0075 0.0170689ZM0.0739479 0.232672L0 0.663836C0 0.663836 1.28449 0.89946 2.44136 1.36954C3.93091 1.90853 4.03705 2.22233 4.28791 3.19693L7.02157 13.7606H10.6862L16.3317 0.232672H12.6755L9.04795 9.43036L7.5677 1.63394C7.43194 0.741673 6.74429 0.232672 5.90258 0.232672H0.0739479ZM17.8019 0.232672L14.9337 13.7606H18.4202L21.2782 0.232629H17.8019V0.232672ZM37.247 0.232672C36.4062 0.232672 35.9608 0.683856 35.634 1.47227L30.5261 13.7606H34.1822L34.8896 11.7125H39.3438L39.774 13.7606H43L40.1856 0.232672H37.247ZM37.7225 3.88749L38.8062 8.96382H35.9028L37.7225 3.88749Z" fill="#1434CB"/>
</g>
<defs>
<clipPath id="clip0_1_192">
<rect width="43" height="14" fill="white"/>
</clipPath>
</defs>
</svg>
